<?xml version="1.0" encoding="utf-8"?>
<!-- Generator: Adobe Illustrator 18.1.1, SVG Export Plug-In . SVG Version: 6.00 Build 0)  -->
<svg version="1.1" id="Layer_1" xmlns="http://www.w3.org/2000/svg" xmlns:xlink="http://www.w3.org/1999/xlink" x="0px" y="0px"
	 viewBox="0 0 288 288" enable-background="new 0 0 288 288" xml:space="preserve">
<g>
	<path d="M227,210.3c-39.6,0-79.2,0-118.7,0c-10.4,0-20.9,0-31.3,0c-4.8,0-9.9,0.5-14.6,0c-8.5-1-6.7-10.7-6.7-16.8
		c0-11.6,0-23.2,0-34.8c0-12.7,0-25.4,0-38.1c0-7-0.6-14.2,0-21.2c0.6-8.1,7.7-7.1,13.4-7.1c8.6,0,17.3,0,25.9,0
		c43.4,0,86.8-0.4,130.2,0c4.3,0,8,1.9,8.4,6.8c0.1,1.5,0,3.1,0,4.7c0,10,0,20,0,30c0,22.3,0,44.6,0,66.9
		C233.6,205.1,233,209.8,227,210.3c-2.4,0.2-2.2,3.5,0.2,3.3c10.7-0.9,10.2-10.4,10.2-18.3c0-11.9,0-23.7,0-35.6
		c0-13.3,0-26.6,0-39.9c0-6.9,0.5-13.9,0-20.8c-0.6-8.8-7.9-10-14.8-10c-8.4,0-16.7,0-25.1,0c-26.8,0-53.5,0-80.3,0
		c-18.1,0-36.2-0.5-54.2,0c-8.1,0.2-10.9,6.1-10.9,13.2c0,10.1,0,20.1,0,30.2c0,23.1,0,46.2,0,69.3c0,7.4,4.4,11.9,11.8,12
		c6.8,0.1,13.5,0,20.3,0c46.6,0,93.2,0,139.8,0c1.1,0,2.2,0,3.3,0C229.6,213.6,229.4,210.3,227,210.3z"/>
</g>
<g>
	<path d="M86.8,88.2c15.4-3.6,31-7,46.5-10.2c12.3-2.6,24.7-5,37.2-7.1c8.5-1.4,17.5-3.3,26.1-3c0.6,0,3.6,0.5,2.5,0
		c-0.9-0.4,0,0.2,0.4,0.9c0.7,1.2,1.5,2.3,2.2,3.5c2.8,4.3,5.5,8.7,8.3,13c1.1,1.8,4.5,0.9,3.2-1.1c-2.6-4.1-5.2-8.2-7.8-12.2
		c-1.5-2.4-2.9-6.1-5.8-7c-6.4-2.1-15.6,0.4-22.1,1.3c-24.6,3.6-48.9,9-73.2,14.4C98,82.1,91.6,83.5,85.2,85
		C83,85.5,84.9,88.7,86.8,88.2L86.8,88.2z"/>
</g>
<g>
	<path d="M90.1,80c10.9-3.8,21.8-7.3,32.8-10.8c16.9-5.4,34.2-11.2,51.7-14.3c2.5-0.4,5.2-1,7.7-0.8c0.2,0,0.5,0,0.8,0.1
		c0.6,0.2-0.3-0.4-0.4-0.5c0.8,0.5,1.5,2.6,1.9,3.4c0.6,1,1.1,2,1.7,3c1,1.8,3.7,1.2,2.5-1c-2.7-4.8-3.6-8.6-9.4-8.4
		c-6.9,0.2-14,2.3-20.6,4c-19.1,4.9-37.8,11-56.5,17.2c-4.7,1.6-9.4,3.1-14.1,4.8C86.4,77.5,88.5,80.6,90.1,80L90.1,80z"/>
</g>
<g>
	<path d="M221.2,148.3c-0.2,2.8-1.4,5.4-4,6.9c-3.9,2.2-9.6,0.6-9.6-4.5c0-2.7,1.4-5.2,3.6-6.6C215.2,141.4,220.9,143.1,221.2,148.3
		c0.1,1.1,2.8,2.9,2.7,2.4c-0.2-4.6-3.4-8.9-7.8-10.3c-5.4-1.8-11.2,2.2-11.2,7.9c0,4.4,3.4,8.7,7.4,10.2c5.7,2.1,11.3-1.9,11.6-7.8
		C224,149.6,221.2,147.7,221.2,148.3z"/>
</g>
<g>
	<path d="M59.9,90.9c-1.5-7.6,10.9-6.3,15.7-6.6c4.7-0.3,9.4-0.6,14.2-0.9c1.7-0.1,0.4-3.6-1.2-3.5c-6.7,0.4-13.5,0.9-20.2,1.3
		c-6,0.4-12.8,1.3-11.3,9.1C57.4,92,60.3,93.3,59.9,90.9L59.9,90.9z"/>
</g>
<g>
	<path d="M215.4,80.1c3.1-0.8,6.5-1.3,9.8-1c1.2,0.1,2.4,0.3,3.4,0.7c0.2,0.1,1.4,0.9,1.5,0.8c-1.1,0.5-0.1-2.2-0.4-0.6
		c-0.3,1.6,0,3.5,0,5.1c0,1,2,2.8,2,3c0-4.3,0.4-8.7-3.9-11.2c-4-2.3-10-1.2-14.2-0.1C213.3,76.9,214.6,80.3,215.4,80.1L215.4,80.1z
		"/>
</g>
</svg>
