<?xml version="1.0" encoding="utf-8"?>
<!-- Generator: Adobe Illustrator 18.1.1, SVG Export Plug-In . SVG Version: 6.00 Build 0)  -->
<svg version="1.1" id="Layer_1" xmlns="http://www.w3.org/2000/svg" xmlns:xlink="http://www.w3.org/1999/xlink" x="0px" y="0px"
	 viewBox="0 0 288 288" enable-background="new 0 0 288 288" xml:space="preserve">
<g>
	<path d="M250.2,167.8c-38.9,17.6-77.8,35.2-116.7,52.9c-16.5,7.5-33,15.2-49.6,22.5c-4.5,2-9.3,1.7-12.7-2.4
		c-1.6-1.9-2.5-4.5-3.5-6.7c-4.6-10.3-9.3-20.5-13.9-30.8c-8.5-18.8-18.1-37.5-25.7-56.7c-3.9-9.9,4-13.4,11-16.6
		c8.3-3.8,16.7-7.6,25-11.3C108,98.8,152,78.9,195.9,59c1.3-0.6,2.5-1.3,3.8-1.7c6.1-2.2,10.9,1,13.6,6.4c4,8.2,7.5,16.7,11.3,25
		c9.7,21.4,19.6,42.8,29.1,64.3c2.5,5.7,2,11.9-4.2,15.1c-2.9,1.5,0,3.8,2.3,2.6c6.8-3.5,10-10.8,7.1-18.1c-0.9-2.4-2.1-4.7-3.2-7
		c-5.3-11.7-10.6-23.4-15.9-35.1c-5.7-12.6-11.4-25.2-17.1-37.8c-3.3-7.3-5.9-17.4-14.9-19.4c-6.1-1.4-11.7,2.1-17,4.5
		c-9.3,4.2-18.5,8.4-27.8,12.6c-26.7,12.1-53.5,24.2-80.2,36.4c-17,7.7-34.1,15.2-51,23.1c-8.8,4.1-11.4,12.2-7.5,20.8
		c4.4,9.8,8.9,19.6,13.3,29.4c9.1,20,17.3,40.6,27.3,60.2c4.8,9.5,14.3,8.7,22.5,5c7.7-3.5,15.4-7,23.1-10.5
		c45.8-20.8,91.7-41.6,137.5-62.3c1.1-0.5,2.1-1,3.2-1.4C254.1,169.7,253,166.5,250.2,167.8z"/>
</g>
<g>
	<path d="M201.6,147.4c-0.3,23.7-13.7,45.7-35.2,56c-22.3,10.7-49.8,6.9-68.2-9.6c-20.1-18.1-22.9-49.8-10-72.8
		c11.7-20.7,34.7-33.2,58.4-31.6c13.7,0.9,26.9,6.4,37.1,15.6c12,10.8,17.7,26.5,17.9,42.5c0,1.3,3,3.3,3,3.8
		c-0.3-24.4-15.1-48.3-36.9-59.3c-24.8-12.6-55.8-6.8-74.4,13.8C75,126,72.4,156.3,86.2,179.6c12.9,21.8,36,36,61.8,33.7
		c31.9-2.8,56.2-30.2,56.6-61.9C204.6,149.9,201.6,148.4,201.6,147.4z"/>
</g>
<g>
	<path d="M174.7,147.6c-0.3,12.7-7.3,24.5-18.8,30.2c-12.7,6.3-29,4-38.1-7.4c-17.5-22,0.3-55.3,27.9-54.2
		C162.9,116.9,174.4,131.1,174.7,147.6c0,1.3,4.3,3.2,4.2,2.3c-0.6-31.1-41.2-49.5-63.3-25.7c-10.6,11.4-11.9,29.1-3.5,42.1
		c7.4,11.4,21,18.7,34.6,17.9c18.2-1.1,31.8-16.4,32.2-34.3C179,148.7,174.7,146.7,174.7,147.6z"/>
</g>
<g>
	<path d="M193.6,54.9c-14.6,6.8-29.2,13.6-43.8,20.5c1.2,0.7,2.4,1.5,3.6,2.2c-0.6-5.7,0.9-10.2,6.1-12.7c3.4-1.6,6.8-3.2,10.2-4.8
		c3.8-1.8,7.7-3.6,11.5-5.4c4.6-2.2,7.7-2.6,11.4,2.7c1.4,2.1,6.1,1.1,4.3-1.5c-3.4-4.9-8.6-9.1-14.7-6.7c-4.5,1.8-8.8,4.1-13.1,6.1
		c-4.3,2-8.6,4-12.9,6c-6.1,2.9-8.3,8.8-7.7,15.4c0.2,1.6,2.1,3,3.6,2.2c14.6-6.8,29.2-13.6,43.8-20.5
		C198.8,57.4,195.9,53.8,193.6,54.9z"/>
</g>
</svg>
