<?xml version="1.0" encoding="utf-8"?>
<!-- Generator: Adobe Illustrator 18.1.1, SVG Export Plug-In . SVG Version: 6.00 Build 0)  -->
<svg version="1.1" xmlns="http://www.w3.org/2000/svg" xmlns:xlink="http://www.w3.org/1999/xlink" x="0px" y="0px"
	 viewBox="0 0 288 288" enable-background="new 0 0 288 288" xml:space="preserve">
<g id="Layer_1">
	<g>
		<path d="M153.8,84c4.3,18.1,8.6,36.2,12.8,54.3c3,12.5,5.9,25.1,8.9,37.6c1.4,5.8,3.4,11.8,4.2,17.7c1.3,9.4,0.5,20.8,0.8,30.8
			c0,0.8,2.2,1.8,2.2,1.1c-0.3-10,0.1-20.2-0.8-30.1c-0.4-4.8-2.1-9.7-3.2-14.4c-5.9-24.9-11.8-49.7-17.6-74.6
			c-1.7-7.2-3.4-14.3-5.1-21.5C155.8,84,153.6,83,153.8,84L153.8,84z"/>
	</g>
	<g>
		<path d="M147.9,82.5c-4.7,1.7-9.5,3.5-14.2,5.2c0.8,0.3,1.5,0.5,2.3,0.8c-1.5-5.5-3-11.1-4.6-16.6c-1.2-4.3-2.4-8.6-3.6-13
			c-0.7-2.6-2.3-5.9-2.3-8.5c0-1.5,0.4-2,1.6-3.3c1.5-1.7,3.4-3.1,5.5-4c2.4-1,8-2,9.6-0.2c1.2,1.4,1.4,5.4,1.9,7.1
			c1.1,4,2.1,8.1,3.2,12.1c1.8,6.8,3.6,13.6,5.3,20.5c0.2,0.6,2.3,0.6,2.4,0.8c-1.8-6.8-3.6-13.6-5.3-20.5
			c-1.2-4.5-2.4-9.1-3.6-13.6c-0.4-1.5-0.6-4.7-1.6-5.9c-1.6-1.9-7.2-2.3-9.5-2.2c-4.2,0.2-8.6,2.5-11.1,6c-1.3,1.8-0.9,2.1-0.3,4.3
			c1.1,4,2.2,8,3.3,12c2.2,8.1,4.4,16.2,6.6,24.3c0.1,0.4,2,0.9,2.3,0.8c4.7-1.7,9.5-3.5,14.2-5.2C150,83.4,148.5,82.2,147.9,82.5
			L147.9,82.5z"/>
	</g>
	<g>
		<path d="M131.4,88.7c5.1,18.2,10.2,36.3,15.3,54.5c3.6,12.7,7.2,25.5,10.7,38.2c1.7,6.1,2.8,13.2,5.3,19c1.7,3.8,4.9,7.5,7.1,11
			c3.1,4.7,6.2,9.4,9.3,14.2c0.5,0.8,4.3-0.5,4.8-1.2c1.3-2.1-10.8-2.4-11.7-2.4c-11.7-0.4-23.5-0.3-35.2-0.4
			c-28-0.4-58.2-0.2-85.1-8.8c-4.2-1.4-8.4-3-12.2-5.2c-1.4-0.8-4.3-2.1-4.9-3.8c-1.1-3.4,6.4-3.2,8.4-3.4
			c26.6-2.9,53.6-2.5,80.3-3.7c38.9-1.7,77.9-4,116.5-8.8c2.1-0.3,27.3-2.7,26.1-7.1c-0.5-1.9-6.2-2.4-7.6-2.7
			c-6-1.1-12-1.7-18.1-2.2c-18.1-1.7-36.2-2.5-54.4-3.3c-30.5-1.3-61.1-2.3-91.7-2.8c-0.6,0-1.1,0-1.7,0c-1,0-4.9,1.7-4,1.7
			c25.8,0.4,51.7,1.2,77.5,2.2c19.2,0.7,38.5,1.6,57.7,2.9c7.4,0.5,14.8,1.1,22.1,2c4.3,0.5,9.2,0.8,13.2,2.4
			c0.7,0.3,1.7,0.5,2.1,1.3c0.3,0.6-1,0.9-0.9,0.9c-4.8,2.1-12.1,2.4-17.6,3.1c-38.5,4.9-77.5,7.1-116.2,8.8
			c-26.6,1.2-53.4,0.9-79.9,3.6c-4.6,0.5-12,0.6-15.8,3.8c-2.9,2.5,0.9,4.8,3.1,6.1c8.6,5.1,18.5,7.6,28.2,9.4
			c14.3,2.7,28.9,3.8,43.4,4.5c14,0.7,28,0.8,42,0.9c9.2,0.1,18.7-0.4,27.9,0.7c0.4,0,4.2,0.4,3.6,1.3c1.6-0.4,3.2-0.8,4.8-1.2
			c-2.6-4-5.3-8.1-7.9-12.1c-2.7-4.1-6.3-8.3-8.4-12.8c-2.2-4.7-3-10.7-4.5-15.7c-7-25.1-14.1-50.2-21.1-75.3c-2-7-3.9-14-5.9-21
			C136,86.7,131.2,88,131.4,88.7L131.4,88.7z"/>
	</g>
	<g>
		<path d="M122.3,53.4c-1.1,1.5-4.4,4.4-4.6,6.3c-0.1,0.9,0.9,2.7,1.1,3.5c2.3,7.3,4.7,14.5,7.1,21.8c3.1,9.3,6.2,18.7,9.5,28
			c2.1,5.9,3.8,12.2,6.9,17.7c0.3,0.6,2.4-0.7,2.1-1.4c-2.7-4.9-4.4-10.6-6.3-15.9c-3.2-8.9-6.2-17.8-9.1-26.8
			c-2.5-7.5-4.9-14.9-7.3-22.4c-0.5-1.5-1.6-3.7-1.7-5.3c0-0.1-0.1-0.2-0.1-0.3c0,0.9,0.6-0.6,1-1.1c1-1.3,2-2.7,3-4
			C124.9,52.2,122.8,52.8,122.3,53.4L122.3,53.4z"/>
	</g>
</g>
<g id="Layer_3">
</g>
</svg>
