<?xml version="1.0" encoding="utf-8"?>
<!-- Generator: Adobe Illustrator 18.1.1, SVG Export Plug-In . SVG Version: 6.00 Build 0)  -->
<svg version="1.1" id="Layer_1" xmlns="http://www.w3.org/2000/svg" xmlns:xlink="http://www.w3.org/1999/xlink" x="0px" y="0px"
	 viewBox="0 0 288 288" enable-background="new 0 0 288 288" xml:space="preserve">
<g>
	<path d="M142.9,43.2c-30.4,18.7-60.8,37.5-91.2,56.2c0.1,0,3.1,3.5,4.1,2.9c30.4-18.7,60.8-37.5,91.2-56.2
		C146.9,46.1,143.8,42.6,142.9,43.2L142.9,43.2z"/>
</g>
<g>
	<path d="M141.5,46.3c30.4,18.7,60.8,37.5,91.2,56.2c2.2,1.3,5.9-1,3.1-2.7c-30.4-18.7-60.8-37.5-91.2-56.2
		C142.4,42.3,138.7,44.6,141.5,46.3L141.5,46.3z"/>
</g>
<g>
	<path d="M74.9,100.2c-6.3,42.6-8.1,85.7-5.6,128.7c0.1,1.4,3.3,3.8,3.3,3.5c-2.5-43-0.6-86.1,5.6-128.7
		C78.4,102.5,75,99.7,74.9,100.2L74.9,100.2z"/>
</g>
<g>
	<path d="M80.2,234.5c36.2,0,72.5,0,108.7,0c3.3,0,0.2-3-1.8-3c-36.2,0-72.5,0-108.7,0C75.1,231.5,78.2,234.5,80.2,234.5L80.2,234.5
		z"/>
</g>
<g>
	<path d="M219.4,108.1c0.1,39.9,1.2,79.7,3.4,119.5c0.1,2.3,4.8,0.6,4.7-1.5c-2.2-39.8-3.3-79.6-3.4-119.5
		C224.1,104.3,219.4,106,219.4,108.1L219.4,108.1z"/>
</g>
<g>
	<path d="M165.8,227c0-12.6,0-25.2,0-37.8c0-1.2-3.2-4.6-3.2-3c0,12.6,0,25.2,0,37.8C162.7,225.2,165.8,228.6,165.8,227L165.8,227z"
		/>
</g>
<g>
	<path d="M163.6,180.7c-10.4,0-20.8,0-31.2,0c-3.2,0-2.3,4.6,0.4,4.6c10.4,0,20.8,0,31.2,0C167.1,185.3,166.2,180.7,163.6,180.7
		L163.6,180.7z"/>
</g>
<g>
	<path d="M129.5,190.6c0,11.5,0,23,0,34.5c0,2.7,4.5,0.9,4.5-1.1c0-11.5,0-23,0-34.5C134,186.8,129.5,188.6,129.5,190.6L129.5,190.6
		z"/>
</g>
</svg>
