<?xml version="1.0" encoding="utf-8"?>
<!-- Generator: Adobe Illustrator 18.1.1, SVG Export Plug-In . SVG Version: 6.00 Build 0)  -->
<svg version="1.1" xmlns="http://www.w3.org/2000/svg" xmlns:xlink="http://www.w3.org/1999/xlink" x="0px" y="0px"
	 viewBox="0 0 288 288" enable-background="new 0 0 288 288" xml:space="preserve">
<g id="Layer_1">
</g>
<g id="Layer_3">
	<g>
		<path d="M59.3,84.2c27.4,12.1,57.3,20.1,86.9,25.1c0.4,0.1,2.7-0.6,1.7-1.1c-18.2-9.1-38.1-14.8-57.7-20c-11.1-3-22.3-5.7-33.5-8
			c-0.4-0.1-1.9,0.2-2,0.8c-3.3,25.8-5.3,52.3-10.7,77.8c-1.6,7.4-4.3,14.3-5.2,22c0,0.1,0,0.2,0.1,0.3c19.2,12,43,20,65.7,19.8
			c0.5,0,1.5-0.2,1.7-0.8c3.1-9.5,6.4-18.5,11-27.2c7.4-14,14.4-28.2,21.6-42.4c2.6-5.1,5-10.6,8.1-15.5c0.5-0.8-1.8-0.5-2.2,0.1
			c-7,10.8-12.1,23.2-17.9,34.6c-5.1,10-10.6,20-15.7,29.9c-3.3,6.4-5.2,14-7.4,20.8c0.6-0.3,1.1-0.5,1.7-0.8
			c-19.6,0.2-38.9-6.1-56.2-14.9c-1.9-1-7.7-3.3-8.1-4.8c-0.5-1.8,0.9-5.6,1.2-7.5c0.6-3.2,1.7-5.9,2.8-8.9c2.8-8,3.5-17.2,4.6-25.6
			c1.3-10.1,2.6-20.2,3.9-30.3c1.1-9,2.3-17.9,3.4-26.9c-0.7,0.3-1.3,0.5-2,0.8c11.5,2.4,23,5.2,34.3,8.2
			c19.2,5.1,38.7,10.8,56.5,19.7c0.6-0.4,1.2-0.7,1.7-1.1c-29.4-5-59.1-13-86.5-25C60.6,82.9,58.4,83.8,59.3,84.2L59.3,84.2z"/>
	</g>
	<g>
		<path d="M41.1,173.4c8.9,3.6,17.9,6.9,27,10c11.9,4.1,25.3,9.5,38.1,9.4c1,0,0-2.3-0.9-2.3c-13,0.2-26.7-5.5-38.8-9.7
			c-8.7-3-17.4-6.2-25.9-9.7C39.6,170.7,40.3,173,41.1,173.4L41.1,173.4z"/>
	</g>
	<g>
		<path d="M46.9,139c6.8,0.8,13.5,0.4,20.3,0c7.8-0.5,15.6-0.3,23.4-0.4c13.5-0.1,26-2.9,39.1-5.9c0.8-0.2,5-2.5,3-2
			c-13.9,3.2-27.1,5.7-41.5,5.7c-13.2,0-26.9,1.9-40,0.4C49.8,136.7,47.1,139,46.9,139L46.9,139z"/>
	</g>
	<path d="M145.2,120.3c6.7-3.2,13.4-6.3,20.2-9.2c6.8-2.9,13.7-5.7,20.6-8.3c3.5-1.3,7-2.5,10.5-3.6c3.5-1.1,7.1-2.2,10.7-3.1
		c1.8-0.5,3.6-0.9,5.4-1.3l2.7-0.6l2.7-0.5l2.8-0.4c0.9-0.1,1.9-0.2,2.8-0.3c0.9-0.1,1.9-0.1,2.8-0.1c0.9,0,1.9,0,2.8,0l0.2,0
		l0.2,0.1c0.8,0.5,1,1.5,0.9,2.2c-0.2,0.7-0.5,1.2-0.9,1.6c-0.7,0.9-1.5,1.5-2.4,2.1c-1.7,1.2-3.4,2.2-5.2,3.2
		c-3.6,1.9-7.2,3.5-10.9,5c-3.7,1.5-7.4,2.9-11.2,4.2c-3.7,1.3-7.5,2.6-11.3,3.8c-3.8,1.2-7.6,2.3-11.4,3.5
		c-3.8,1.1-7.6,2.3-11.5,3.3c-3.8,1-7.7,2-11.6,2.9c-1.9,0.4-3.9,0.8-5.9,1.2c-1,0.2-2,0.3-3,0.4c-1,0.1-2,0.2-3,0l0-0.2
		c1,0.1,2-0.1,2.9-0.2c1-0.2,1.9-0.4,2.9-0.6c1.9-0.4,3.8-1,5.7-1.5c3.8-1,7.6-2.2,11.4-3.4l11.3-3.6l11.3-3.7l5.6-1.9l5.6-1.9
		c3.7-1.3,7.5-2.6,11.1-4.1c3.7-1.4,7.3-3,10.8-4.7c1.7-0.9,3.5-1.8,5-2.9c0.8-0.5,1.5-1.1,2.1-1.8c0.3-0.3,0.5-0.7,0.6-1
		c0.1-0.3,0-0.4-0.1-0.5l0.3,0.1c-0.9,0-1.8-0.1-2.7-0.1c-0.9,0-1.8,0-2.7,0.1c-0.9,0.1-1.8,0.1-2.7,0.2l-2.7,0.4l-2.7,0.4l-2.7,0.5
		c-1.8,0.4-3.6,0.8-5.4,1.2c-3.6,0.9-7.1,1.9-10.6,3c-3.5,1.1-7,2.3-10.5,3.5c-7,2.4-13.9,5.1-20.7,7.9c-6.8,2.8-13.6,5.7-20.3,8.8
		L145.2,120.3z"/>
	<g>
		<path d="M229.4,95.1c2.4,18.1,4.9,36.1,7.8,54.1c1.1,6.9,2.5,13.7,4.4,20.4c1.4,5,2.9,9.9,4.4,14.8c0.4,1.4,2.3,4.8,2.1,6.2
			c-0.2,1.3-2.4,2.9-3.3,3.7c-2.6,2.3-5.6,4.3-8.6,6.1c-13.7,7.9-29.8,11.3-45.4,12.9c-4,0.4-3.5,0.6-4.8-2.4
			c-1.1-2.3-2.1-4.7-3.2-7c-1.3-3-2.6-6-4-9c-2.5-5.2-5.3-10.3-8-15.4c-8.5-16.4-17-32.8-25.6-49.2c-0.2-0.4-2.5,0.4-2.5,0.3
			c11.2,21.5,23,42.8,33.6,64.7c3,6.2,5.6,12.5,8.4,18.7c0.1,0.1,0.5,0.1,0.6,0.1c16.7-1.3,33.8-4.2,48.9-11.7
			c4.4-2.2,8.8-4.8,12.5-8c1-0.9,3.5-2.7,3.8-4.2c0.1-0.5-0.7-1.9-0.9-2.3c-1-2.9-1.8-5.8-2.7-8.7c-1.5-5-3-10.1-4.4-15.1
			c-3-11.3-4.2-23.1-5.9-34.7c-1.7-11.6-3.3-23.2-4.8-34.7C231.9,94.5,229.4,94.8,229.4,95.1L229.4,95.1z"/>
	</g>
	<g>
		<path d="M240.1,149.4c-13.1-2.1-27.1,1-40.3,1.1c-13,0.1-26-1.4-39,0.3c-1,0.1-4.3,3-3.3,2.9c13.4-1.8,26.9-0.1,40.3-0.3
			c12.6-0.2,25.9-3,38.4-1C237.5,152.5,240.3,149.4,240.1,149.4L240.1,149.4z"/>
	</g>
	<g>
		<path d="M97.3,67.6c7.7-8.6,18-15.5,28.5-20.1c9.6-4.2,20.2-6.2,30.7-4.9c14.6,1.7,27.1,9.9,37.4,19.9c2.2,2.2,4.6-0.7,2.3-2.8
			c-19-18.4-44-27.1-69.6-17.6c-12.3,4.6-24.4,12.4-33.2,22.3C91.9,66.2,95.7,69.4,97.3,67.6L97.3,67.6z"/>
	</g>
	<g>
		<path d="M98.6,36.4c-2.1,10-4.2,20-6.3,30c-0.2,0.9,3.1,3,3.8,3.1c11,1.5,22,2.9,33,4.4c-0.4-0.1-2.3-2.9-3.7-3.1
			c-11-1.5-22-2.9-33-4.4c1.3,1,2.6,2,3.8,3.1c2.1-10,4.2-20,6.3-30C102.8,38.3,98.6,36.5,98.6,36.4L98.6,36.4z"/>
	</g>
	<g>
		<path d="M182.7,228c-7.2,8-16.6,14.6-26.3,19.1c-24.7,11.8-49.7,3.2-68.5-15.1c-1-0.9-4.7,1.2-4.9,0.9
			c10.6,10.3,23.4,18.5,38.3,20.6c10.5,1.5,21.3-0.1,31.3-3.5c13-4.5,25.7-12.5,34.9-22.8C187.3,227.5,183.6,227,182.7,228
			L182.7,228z"/>
	</g>
	<g>
		<path d="M181.3,258.2c2.1-10,4.2-20,6.3-30c0.3-1.2-0.4-2.5-1.8-2.7c-11-1.5-22-2.9-33-4.4c-2.9-0.4-4.5,4-1.3,4.5
			c11,1.5,22,2.9,33,4.4c-0.6-0.9-1.2-1.8-1.8-2.7c-2.1,10-4.2,20-6.3,30C175.8,260.3,180.7,261,181.3,258.2L181.3,258.2z"/>
	</g>
</g>
</svg>
